{"title":"Madras Cafe 2013.1080p.BluRay.x264 . NVEE","uid":9241090,"size":2727603815,"categoryP":"video","categoryS":"hd___movies","magnet":"?xt=urn:btih:b63183846f58856f2096ad690fb0d2334255d8e0&amp;dn=Madras+Cafe+2013.1080p.BluRay.x264+.+NVEE&amp;tr=udp%3A%2F%2Ftracker.openbittorrent.com%3A80&amp;tr=udp%3A%2F%2Fopen.demonii.com%3A1337&amp;tr=udp%3A%2F%2Ftracker.coppersurfer.tk%3A6969&amp;tr=udp%3A%2F%2Fexodus.desync.com%3A6969","seeders":1,"leechers":0,"uploader":".NVEE","files":7,"time":1385281632,"description":"FULL_INFOs\n\n\n99.99% --- SYNCED GUARANTEED \n\n&quot;Totally scrutinized / analyzed to be a verified torrent.&quot;\n___________________________________________\n\nSource : Blu-Ray ~ 1080p\n\nMy Media Player of Choice &quot;VLC Media Player via HDMI&quot;\n\nSpoken Languages : Hindi / English\n\nAudio : 6 ~ Channels Only\n\nDon't delete torrent link,... Please seed . NVEE\n_____________________________________\n\n\n &lt;a href=&quot;\nhttp://www.imdb.com/title/tt2855648/&quot; rel=&quot;nofollow&quot; target=&quot;_NEW&quot;&gt;\nhttp://www.imdb.com/title/tt2855648/&lt;/a&gt;\n\n\n\nSubs Info : MULTI_SUBS\n\n &lt;a href=&quot;\nhttp://www.subtitleseeker.com/2855648/Madras+Cafe/Subtitles/?order=New&quot; rel=&quot;nofollow&quot; target=&quot;_NEW&quot;&gt;\nhttp://www.subtitleseeker.com/2855648/Madras+Cafe/Subtitles/?order=New&lt;/a&gt;\n\n26 Subtitles In 8 Languages Use Link Provided \n &lt;a href=&quot;\nhttp://www.subtitleseeker.com/2855648/Madras+Cafe/Subtitles/?order=New&quot; rel=&quot;nofollow&quot; target=&quot;_NEW&quot;&gt;\nhttp://www.subtitleseeker.com/2855648/Madras+Cafe/Subtitles/?order=New&lt;/a&gt;\n\n26 Subtitles In 8 Languages Only @ SubtitleSeeker\n &lt;a href=&quot;\nhttp://www.subtitleseeker.com/2855648/Madras+Cafe/Subtitles/?order=New&quot; rel=&quot;nofollow&quot; target=&quot;_NEW&quot;&gt;\nhttp://www.subtitleseeker.com/2855648/Madras+Cafe/Subtitles/?order=New&lt;/a&gt;\n\n&amp; or @\n &lt;a href=&quot;\nhttp://subscene.com/subtitles/madras-cafe&quot; rel=&quot;nofollow&quot; target=&quot;_NEW&quot;&gt;\nhttp://subscene.com/subtitles/madras-cafe&lt;/a&gt;\n\nAll .srt subs can be turned On/Off\n\n\n &lt;a href=&quot;\nhttp://www.imdb.com/title/tt2855648/&quot; rel=&quot;nofollow&quot; target=&quot;_NEW&quot;&gt;\nhttp://www.imdb.com/title/tt2855648/&lt;/a&gt;\n\n\n\n---------------------------------------------------------------------------------\n\n\nGeneral Metadata\n\nComplete name : Madras Cafe 2013.1080p.BluRay.x264 . NVEE.mp4\nFormat : MPEG-4\nFormat profile : Base Media\nCodec ID : isom\nFile size : 2.54 GiB\nDuration : 2h 10mn\nOverall bit rate : 2 795 Kbps\nEncoded date : UTC 2013-11-23 14:25:17\nTagged date : UTC 2013-11-23 14:25:17\n\n\nVideo\n\nID : 1\nFormat : AVC\nFormat/Info : Advanced Video Codec\nFormat profile : &lt;a class=&quot;__cf_email__&quot; href=&quot;/cdn-cgi/l/email-protection&quot; data-cfemail=&quot;733b1a141b333f475d43&quot;&gt;[email&amp;#160;protected]&lt;/a&gt;&lt;script cf-hash='f9e31' type=&quot;text/javascript&quot;&gt;\n/* &lt;![CDATA[ */!function(){try{var t=&quot;currentScript&quot;in document?document.currentScript:function(){for(var t=document.getElementsByTagName(&quot;script&quot;),e=t.length;e--;)if(t[e].getAttribute(&quot;cf-hash&quot;))return t[e]}();if(t&amp;&amp;t.previousSibling){var e,r,n,i,c=t.previousSibling,a=c.getAttribute(&quot;data-cfemail&quot;);if(a){for(e=&quot;&quot;,r=parseInt(a.substr(0,2),16),n=2;a.length-n;n+=2)i=parseInt(a.substr(n,2),16)^r,e+=String.fromCharCode(i);e=document.createTextNode(e),c.parentNode.replaceChild(e,c)}}}catch(u){}}();/* ]]&gt; */&lt;/script&gt;\nFormat settings, CABAC : Yes\nFormat settings, ReFrames : 3 frames\nCodec ID : avc1\nCodec ID/Info : Advanced Video Coding\nDuration : 2h 10mn\nBit rate : 2 182 Kbps\nMaximum bit rate : 24.0 Mbps\nWidth : 1 920 pixels\nHeight : 816 pixels\nDisplay aspect ratio : 2.35:1\nFrame rate mode : Constant\nFrame rate : 24.000 fps\nColor space : YUV\nChroma subsampling : 4:2:0\nBit depth : 8 bits\nScan type : Progressive\nBits/(Pixel*Frame) : 0.058\nStream size : 1.98 GiB (78%)\nTitle : 1080p.BluRay.x264 .264#trackID=1:fps=&lt;a class=&quot;__cf_email__&quot; href=&quot;/cdn-cgi/l/email-protection&quot; data-cfemail=&quot;f1c3c5b1b6a1b0b2c1dfc4dfc0dcb5b4a7dc839487c5c3c9c2&quot;&gt;[email&amp;#160;protected]&lt;/a&gt;&lt;script cf-hash='f9e31' type=&quot;text/javascript&quot;&gt;\n/* &lt;![CDATA[ */!function(){try{var t=&quot;currentScript&quot;in document?document.currentScript:function(){for(var t=document.getElementsByTagName(&quot;script&quot;),e=t.length;e--;)if(t[e].getAttribute(&quot;cf-hash&quot;))return t[e]}();if(t&amp;&amp;t.previousSibling){var e,r,n,i,c=t.previousSibling,a=c.getAttribute(&quot;data-cfemail&quot;);if(a){for(e=&quot;&quot;,r=parseInt(a.substr(0,2),16),n=2;a.length-n;n+=2)i=parseInt(a.substr(n,2),16)^r,e+=String.fromCharCode(i);e=document.createTextNode(e),c.parentNode.replaceChild(e,c)}}}catch(u){}}();/* ]]&gt; */&lt;/script&gt;\nWriting library : x264 core 133 r2334 a3ac64b\nEncoded date : UTC 2013-11-23 14:25:17\nTagged date : UTC 2013-11-23 14:39:42\nColor primaries : BT.709\nTransfer characteristics : BT.709\nMatrix coefficients : BT.709\n\n\nAudio\n\nID : 2\nFormat : AC-3\nFormat/Info : Audio Coding 3\nMode extension : CM (complete main)\nFormat settings, Endianness : Big\nCodec ID : ac-3\nDuration : 2h 4mn\nBit rate mode : Constant\nBit rate : 640 Kbps\nChannel(s) : 6 channels\nChannel positions : Front: L C R, Side: L R, LFE\nSampling rate : 48.0 KHz\nBit depth : 16 bits\nCompression mode : Lossy\nStream size : 569 MiB (22%)\nTitle : 1080p.BluRay.x264 . NVEE - [0] Hindi_audio.ac3#trackID=1:lang=&lt;a class=&quot;__cf_email__&quot; href=&quot;/cdn-cgi/l/email-protection&quot; data-cfemail=&quot;533b3a1314031210637d667d627e1716057e21362567616b60&quot;&gt;[email&amp;#160;protected]&lt;/a&gt;&lt;script cf-hash='f9e31' type=&quot;text/javascript&quot;&gt;\n/* &lt;![CDATA[ */!function(){try{var t=&quot;currentScript&quot;in document?document.currentScript:function(){for(var t=document.getElementsByTagName(&quot;script&quot;),e=t.length;e--;)if(t[e].getAttribute(&quot;cf-hash&quot;))return t[e]}();if(t&amp;&amp;t.previousSibling){var e,r,n,i,c=t.previousSibling,a=c.getAttribute(&quot;data-cfemail&quot;);if(a){for(e=&quot;&quot;,r=parseInt(a.substr(0,2),16),n=2;a.length-n;n+=2)i=parseInt(a.substr(n,2),16)^r,e+=String.fromCharCode(i);e=document.createTextNode(e),c.parentNode.replaceChild(e,c)}}}catch(u){}}();/* ]]&gt; */&lt;/script&gt;\nLanguage : Hindi\nEncoded date : UTC 2013-11-23 14:36:24\nTagged date : UTC 2013-11-23 14:39:42\n\n\nSynopsis\n\nAs per John Abraham, &quot;Madras Cafe brings us closer to what changed the political history of India.&quot;The film, set in India and Sri Lanka, is a political spy thriller with the backdrop of the Sri Lankan civil war. Major Vikram Singh (John Abraham) is an Indian Army special officer who is appointed by the intelligence agency Research and Analysis Wing to head covert operations in Jaffna shortly after Indian peace-keeping force was forced to withdraw. As he journeys to Sri Lanka, with the intention of disrupting the LTF rebels, he becomes entangled in rebel and military politics. There he meets a British journalist (Jaya Sahni) who wants to reveal the truth about the civil war, and in the process he uncovers a conspiracy to assassinate &quot;a former Indian prime minister&quot;.\n&quot;The film is a work of fiction, but it is based on research into real events, it has a resemblance to actual political events, dealing with civil war and the ideology of a rebel group.&quot;\n\nEnjoy !","torrent":{"xt":"urn:btih:b63183846f58856f2096ad690fb0d2334255d8e0","amp;dn":"Madras+Cafe+2013.1080p.BluRay.x264+.+NVEE","amp;tr":["udp%3A%2F%2Ftracker.openbittorrent.com%3A80","udp%3A%2F%2Fopen.demonii.com%3A1337","udp%3A%2F%2Ftracker.coppersurfer.tk%3A6969","udp%3A%2F%2Fexodus.desync.com%3A6969"],"infoHash":"b63183846f58856f2096ad690fb0d2334255d8e0","infoHashBuffer":{"type":"Buffer","data":[182,49,131,132,111,88,133,111,32,150,173,105,15,176,210,51,66,85,216,224]},"announce":[],"urlList":[]}}